<svg xmlns="http://www.w3.org/2000/svg" viewBox="0 0 2145.98 2499.93"><defs><style>.cls-1{fill:#6b8678;}.cls-2{fill:#3a5d4b;}.cls-3{fill:#09351e;}</style></defs><g id="Camada_2" data-name="Camada 2"><g id="Camada_1-2" data-name="Camada 1"><path class="cls-1" d="M1073,2142.21,715.36,2499.93H64.92A64.91,64.91,0,0,1,0,2435V1426.94H357.72Z"/><path class="cls-2" d="M2146,1426.94V2435a64.91,64.91,0,0,1-64.91,64.92H715.36L1073,2142.21l715.27-715.27Z"/><path class="cls-3" d="M713.45,0c197,0,375.39,79.86,504.5,209a713.59,713.59,0,0,1,167.79,265.1c.44,1.25.88,2.51,1.32,3.74a357.13,357.13,0,0,0,335.67,235.66h66.52A356.68,356.68,0,0,1,2146,1070.2v356.74H0V713.47c0-197,79.86-375.39,209-504.5S516.43,0,713.45,0Z"/></g></g></svg>